# xmcd
#
# Track frame offsets:
#	150
#	12335
#	25658
#	43120
#	61530
#	76383
#	90542
#	104345
#	122845
#	137313
#
# Disc length: 2047 seconds
#
# Revision: 1
# Processed by: cddbd v1.4PL0 Copyright (c) Steve Scherf et al.
# Submitted via: audiograbber 1.82.00
#
DISCID=6f07fd0a
DTITLE=Various Artist - Carnival In Rio - Sambas and Music of Brazil
DYEAR=1900
DGENRE=
TTITLE0=Catriburim Na Batucada
TTITLE1=Rio Carnaval Dos Carnavals
TTITLE2=Festa Para Um Rei Negro
TTITLE3=Pasacarda- Amigo Do Rei
TTITLE4=O Sabor Poetica Da Literatura De Cordel
TTITLE5=Ilu Aye
TTITLE6=Alo, Alo, Tai Carmen Miranda
TTITLE7=Mangueira, Minha Querida Madrinha
TTITLE8=Lendas Do Abaete
TTITLE9=Viagem Encatada Pindorama A Dentro
EXTD=
EXTT0=
EXTT1=
EXTT2=
EXTT3=
EXTT4=
EXTT5=
EXTT6=
EXTT7=
EXTT8=
EXTT9=
PLAYORDER=
